<svg aria-hidden="true" xmlns="http://www.w3.org/2000/svg" xmlns:xlink="http://www.w3.org/1999/xlink"><symbol viewBox="0 0 59 58" id="arrow-buy" xmlns="http://www.w3.org/2000/svg">
<rect width="59" height="58"/>
<g clip-path="url(#aclip0_0_1)">
<rect width="1440" height="9235" transform="translate(-50 -666)"/>
<rect x="0.5" width="58" height="58"/>
<path d="M41.5 29L35.4655 24L35.4655 28L17.5 28L17.5 30L35.4655 30L35.4655 34L41.5 29Z"/>
</g>
<defs>
<clipPath id="aclip0_0_1">
<rect width="1440" height="9235" transform="translate(-50 -666)"/>
</clipPath>
</defs>
</symbol><symbol viewBox="0 0 8 5" id="arrow-header" xmlns="http://www.w3.org/2000/svg">
<path d="M0.526967 0.194787C0.786681 -0.0647285 1.20769 -0.0649578 1.46769 0.194274L4.05941 2.77838L6.65114 0.194274C6.91114 -0.0649581 7.33215 -0.0647285 7.59186 0.194787C7.85178 0.454502 7.85178 0.875584 7.59186 1.1353L4.72659 3.99838C4.35812 4.36657 3.76071 4.36657 3.39224 3.99838L0.526967 1.1353C0.267052 0.875583 0.267053 0.454502 0.526967 0.194787Z"/>
</symbol><symbol viewBox="0 0 24 24" id="arrow-right" xmlns="http://www.w3.org/2000/svg">

<title/>

<g id="cComplete">

<g id="carrow-right">

<g>

<polyline data-name="Right" id="cRight-2" points="16.4 7 21.5 12 16.4 17" stroke-linecap="round" stroke-linejoin="round" stroke-width="2"/>

<line stroke-linecap="round" stroke-linejoin="round" stroke-width="2" x1="2.5" x2="19.2" y1="12" y2="12"/>

</g>

</g>

</g>

</symbol><symbol id="facebook" viewBox="-143 145 512 512" xml:space="preserve" xmlns="http://www.w3.org/2000/svg">
<path d="M113,145c-141.4,0-256,114.6-256,256s114.6,256,256,256s256-114.6,256-256S254.4,145,113,145z M169.5,357.6l-2.9,38.3h-39.3  v133H77.7v-133H51.2v-38.3h26.5v-25.7c0-11.3,0.3-28.8,8.5-39.7c8.7-11.5,20.6-19.3,41.1-19.3c33.4,0,47.4,4.8,47.4,4.8l-6.6,39.2  c0,0-11-3.2-21.3-3.2c-10.3,0-19.5,3.7-19.5,14v29.9H169.5z"/>
</symbol><symbol viewBox="0 0 6 10" id="icon-video" xmlns="http://www.w3.org/2000/svg">
<path d="M1.16699 8.33317V1.6665L5.33366 4.77762L1.16699 8.33317Z" stroke-width="0.833333"/>
</symbol><symbol viewBox="0 0 128 32" id="icons" xmlns="http://www.w3.org/2000/svg">
<circle cx="112" cy="16" r="16"/>
<path d="M117.788 8.14478H106.135C104.82 8.14478 103.817 9.14717 103.817 10.4628V22.1156C103.817 23.4312 104.82 24.4336 106.135 24.4336H117.788C119.104 24.4336 120.106 23.4312 120.106 22.1156V10.4628C120.106 9.14717 119.104 8.14478 117.788 8.14478ZM111.962 21.1758C114.656 21.1758 116.848 19.0458 116.848 16.4771C116.848 16.3056 116.839 16.1245 116.82 15.945C116.778 15.5532 117.067 15.1615 117.461 15.1615C117.78 15.1615 118.039 15.42 118.039 15.7388V21.8023C118.039 22.1156 117.788 22.4288 117.412 22.4288H106.511C106.198 22.4288 105.885 22.1782 105.885 21.8023V15.7184C105.885 15.3762 106.162 15.0989 106.504 15.0989C106.916 15.0989 107.212 15.4945 107.166 15.9036C107.147 16.0739 107.138 16.2442 107.138 16.4145C107.075 19.0458 109.268 21.1758 111.962 21.1758ZM111.962 19.2964C110.208 19.2964 108.829 17.9181 108.829 16.2265C108.829 14.535 110.208 13.1567 111.962 13.1567C113.716 13.1567 115.094 14.535 115.094 16.2265C115.094 17.9807 113.716 19.2964 111.962 19.2964ZM117.976 12.5929C117.976 12.9688 117.663 13.282 117.287 13.282H115.533C115.157 13.282 114.844 12.9688 114.844 12.5929V10.9013C114.844 10.5255 115.157 10.2122 115.533 10.2122H117.287C117.663 10.2122 117.976 10.5255 117.976 10.9013V12.5929Z"/>
<circle cx="64" cy="16" r="16"/>
<path d="M72.2693 11.158C71.6876 11.4001 71.0227 11.5614 70.3579 11.6421C71.0227 11.2387 71.6045 10.5932 71.8538 9.86706C71.1889 10.2705 70.5241 10.5125 69.693 10.6739C69.1113 10.0284 68.1971 9.625 67.2829 9.625C65.4546 9.625 63.9587 11.0773 63.9587 12.8524C63.9587 13.0944 63.9587 13.3365 64.0418 13.5785C61.2993 13.4172 58.8061 12.1262 57.144 10.1898C56.8946 10.6739 56.7284 11.2387 56.7284 11.8035C56.7284 12.9331 57.3102 13.9013 58.2243 14.4661C57.6426 14.4661 57.144 14.3047 56.7284 14.0627C56.7284 15.5957 57.8919 16.9673 59.3878 17.2094C59.1385 17.29 58.8061 17.2901 58.4737 17.2901C58.2243 17.2901 58.0581 17.29 57.8088 17.2094C58.2243 18.5003 59.4709 19.4685 60.9668 19.4685C59.8034 20.3561 58.3906 20.8402 56.8115 20.8402C56.5622 20.8402 56.3129 20.8402 55.9805 20.7595C57.4764 21.647 59.2216 22.2118 61.1331 22.2118C67.2829 22.2118 70.6072 17.2901 70.6072 13.0138V12.6103C71.272 12.3683 71.8538 11.8035 72.2693 11.158Z"/>
<circle cx="16" cy="16.0002" r="16"/>
<path d="M19.3808 12.0668C19.4632 12.0668 19.5291 12.0998 19.5786 12.1657C19.6445 12.2152 19.6775 12.2811 19.6775 12.3635V14.317C19.6775 14.3994 19.6445 14.4736 19.5786 14.5395C19.5291 14.589 19.4632 14.6137 19.3808 14.6137H16.9328C16.8503 14.6137 16.8091 14.6549 16.8091 14.7374V24.4305C16.8091 24.5129 16.7762 24.5871 16.7102 24.653C16.6608 24.7025 16.5948 24.7272 16.5124 24.7272H14.2375C14.1551 24.7272 14.0809 24.7025 14.0149 24.653C13.9655 24.5871 13.9408 24.5129 13.9408 24.4305V14.7374C13.9408 14.6549 13.8995 14.6137 13.8171 14.6137H12.284C12.2016 14.6137 12.1274 14.589 12.0615 14.5395C12.012 14.4736 11.9873 14.3994 11.9873 14.317V12.3635C11.9873 12.2811 12.012 12.2152 12.0615 12.1657C12.1274 12.0998 12.2016 12.0668 12.284 12.0668H13.8171C13.8995 12.0668 13.9408 12.0256 13.9408 11.9432V11.4981C13.9408 10.4265 14.0809 9.6023 14.3611 9.02533C14.6414 8.43187 15.1029 8.01151 15.7459 7.76423C16.3888 7.51696 17.2954 7.40156 18.4659 7.41805H19.3313C19.4137 7.41805 19.4797 7.45102 19.5291 7.51696C19.5951 7.56641 19.628 7.63235 19.628 7.71478V9.44569C19.628 9.52812 19.5951 9.6023 19.5291 9.66824C19.4797 9.7177 19.4137 9.74242 19.3313 9.74242H18.6884C17.9795 9.74242 17.485 9.88254 17.2048 10.1628C16.941 10.443 16.8091 10.9541 16.8091 11.6959V11.9432C16.8091 12.0256 16.8503 12.0668 16.9328 12.0668H19.3808Z"/>
</symbol><symbol id="instagram" viewBox="-143 145 512 512" xml:space="preserve" xmlns="http://www.w3.org/2000/svg">
<g>
	<path d="M113,446c24.8,0,45.1-20.2,45.1-45.1c0-9.8-3.2-18.9-8.5-26.3c-8.2-11.3-21.5-18.8-36.5-18.8s-28.3,7.4-36.5,18.8   c-5.3,7.4-8.5,16.5-8.5,26.3C68,425.8,88.2,446,113,446z"/>
	<polygon points="211.4,345.9 211.4,308.1 211.4,302.5 205.8,302.5 168,302.6 168.2,346  "/>
	<path d="M183,401c0,38.6-31.4,70-70,70c-38.6,0-70-31.4-70-70c0-9.3,1.9-18.2,5.2-26.3H10v104.8C10,493,21,504,34.5,504h157   c13.5,0,24.5-11,24.5-24.5V374.7h-38.2C181.2,382.8,183,391.7,183,401z"/>
	<path d="M113,145c-141.4,0-256,114.6-256,256s114.6,256,256,256s256-114.6,256-256S254.4,145,113,145z M241,374.7v104.8   c0,27.3-22.2,49.5-49.5,49.5h-157C7.2,529-15,506.8-15,479.5V374.7v-52.3c0-27.3,22.2-49.5,49.5-49.5h157   c27.3,0,49.5,22.2,49.5,49.5V374.7z"/>
</g>
</symbol><symbol id="twitter" viewBox="-143 145 512 512" xml:space="preserve" xmlns="http://www.w3.org/2000/svg">
<path d="M113,145c-141.4,0-256,114.6-256,256s114.6,256,256,256s256-114.6,256-256S254.4,145,113,145z M215.2,361.2  c0.1,2.2,0.1,4.5,0.1,6.8c0,69.5-52.9,149.7-149.7,149.7c-29.7,0-57.4-8.7-80.6-23.6c4.1,0.5,8.3,0.7,12.6,0.7  c24.6,0,47.3-8.4,65.3-22.5c-23-0.4-42.5-15.6-49.1-36.5c3.2,0.6,6.5,0.9,9.9,0.9c4.8,0,9.5-0.6,13.9-1.9  C13.5,430-4.6,408.7-4.6,383.2v-0.6c7.1,3.9,15.2,6.3,23.8,6.6c-14.1-9.4-23.4-25.6-23.4-43.8c0-9.6,2.6-18.7,7.1-26.5  c26,31.9,64.7,52.8,108.4,55c-0.9-3.8-1.4-7.8-1.4-12c0-29,23.6-52.6,52.6-52.6c15.1,0,28.8,6.4,38.4,16.6  c12-2.4,23.2-6.7,33.4-12.8c-3.9,12.3-12.3,22.6-23.1,29.1c10.6-1.3,20.8-4.1,30.2-8.3C234.4,344.5,225.5,353.7,215.2,361.2z"/>
</symbol></svg>